<mxfile modified="2023-09-05T08:01:50.752Z" host="app.diagrams.net" agent="5.0 (Windows NT 10.0; Win64; x64) AppleWebKit/537.36 (KHTML, like Gecko) Chrome/116.0.0.0 Safari/537.36 Edg/116.0.1938.69" etag="Jw5JAr5uc3NhJKL0RnzV" version="20.8.5" type="github">
  <diagram id="WI9T0HZ2pTsCkuznbFz-" name="Page-1">
    <mxGraphModel dx="1303" dy="764" grid="1" gridSize="10" guides="1" tooltips="1" connect="1" arrows="1" fold="1" page="1" pageScale="1" pageWidth="1169" pageHeight="827" math="0" shadow="0">
      <root>
        <mxCell id="0" />
        <mxCell id="1" parent="0" />
        <mxCell id="M2kr-xBNgNFIODvM_Phu-2" value="" style="rounded=0;whiteSpace=wrap;html=1;" vertex="1" parent="1">
          <mxGeometry x="79" y="100" width="950" height="520" as="geometry" />
        </mxCell>
        <mxCell id="M2kr-xBNgNFIODvM_Phu-71" value="" style="rounded=0;whiteSpace=wrap;html=1;dashed=1;" vertex="1" parent="1">
          <mxGeometry x="88" y="270" width="932" height="338" as="geometry" />
        </mxCell>
        <mxCell id="M2kr-xBNgNFIODvM_Phu-3" value="" style="rounded=0;whiteSpace=wrap;html=1;" vertex="1" parent="1">
          <mxGeometry x="100" y="352" width="120" height="250" as="geometry" />
        </mxCell>
        <mxCell id="M2kr-xBNgNFIODvM_Phu-4" value="" style="rounded=0;whiteSpace=wrap;html=1;" vertex="1" parent="1">
          <mxGeometry x="230" y="352" width="120" height="250" as="geometry" />
        </mxCell>
        <mxCell id="M2kr-xBNgNFIODvM_Phu-5" value="" style="rounded=0;whiteSpace=wrap;html=1;" vertex="1" parent="1">
          <mxGeometry x="360" y="352" width="120" height="250" as="geometry" />
        </mxCell>
        <mxCell id="M2kr-xBNgNFIODvM_Phu-6" value="" style="rounded=0;whiteSpace=wrap;html=1;" vertex="1" parent="1">
          <mxGeometry x="490" y="350" width="120" height="250" as="geometry" />
        </mxCell>
        <mxCell id="M2kr-xBNgNFIODvM_Phu-7" value="" style="rounded=0;whiteSpace=wrap;html=1;" vertex="1" parent="1">
          <mxGeometry x="620" y="350" width="120" height="250" as="geometry" />
        </mxCell>
        <mxCell id="M2kr-xBNgNFIODvM_Phu-8" value="" style="rounded=0;whiteSpace=wrap;html=1;" vertex="1" parent="1">
          <mxGeometry x="750" y="350" width="120" height="250" as="geometry" />
        </mxCell>
        <mxCell id="M2kr-xBNgNFIODvM_Phu-9" value="" style="rounded=0;whiteSpace=wrap;html=1;" vertex="1" parent="1">
          <mxGeometry x="880" y="350" width="120" height="250" as="geometry" />
        </mxCell>
        <mxCell id="M2kr-xBNgNFIODvM_Phu-11" value="" style="aspect=fixed;html=1;points=[];align=center;image;fontSize=12;image=img/lib/azure2/compute/Azure_Spring_Cloud.svg;" vertex="1" parent="1">
          <mxGeometry x="109" y="550" width="48" height="48" as="geometry" />
        </mxCell>
        <mxCell id="M2kr-xBNgNFIODvM_Phu-12" value="" style="aspect=fixed;html=1;points=[];align=center;image;fontSize=12;image=img/lib/azure2/compute/Azure_Spring_Cloud.svg;" vertex="1" parent="1">
          <mxGeometry x="240" y="550" width="48" height="48" as="geometry" />
        </mxCell>
        <mxCell id="M2kr-xBNgNFIODvM_Phu-13" value="" style="aspect=fixed;html=1;points=[];align=center;image;fontSize=12;image=img/lib/azure2/compute/Azure_Spring_Cloud.svg;" vertex="1" parent="1">
          <mxGeometry x="370" y="550" width="48" height="48" as="geometry" />
        </mxCell>
        <mxCell id="M2kr-xBNgNFIODvM_Phu-14" value="" style="aspect=fixed;html=1;points=[];align=center;image;fontSize=12;image=img/lib/azure2/compute/Azure_Spring_Cloud.svg;" vertex="1" parent="1">
          <mxGeometry x="500" y="550" width="48" height="48" as="geometry" />
        </mxCell>
        <mxCell id="M2kr-xBNgNFIODvM_Phu-15" value="" style="aspect=fixed;html=1;points=[];align=center;image;fontSize=12;image=img/lib/azure2/compute/Azure_Spring_Cloud.svg;" vertex="1" parent="1">
          <mxGeometry x="630" y="550" width="48" height="48" as="geometry" />
        </mxCell>
        <mxCell id="M2kr-xBNgNFIODvM_Phu-16" value="" style="aspect=fixed;html=1;points=[];align=center;image;fontSize=12;image=img/lib/azure2/compute/Azure_Spring_Cloud.svg;" vertex="1" parent="1">
          <mxGeometry x="762" y="550" width="48" height="48" as="geometry" />
        </mxCell>
        <mxCell id="M2kr-xBNgNFIODvM_Phu-17" value="" style="aspect=fixed;html=1;points=[];align=center;image;fontSize=12;image=img/lib/azure2/compute/Azure_Spring_Cloud.svg;" vertex="1" parent="1">
          <mxGeometry x="890" y="550" width="48" height="48" as="geometry" />
        </mxCell>
        <mxCell id="M2kr-xBNgNFIODvM_Phu-18" value="" style="sketch=0;html=1;dashed=0;whitespace=wrap;fillColor=#2875E2;strokeColor=#ffffff;points=[[0.005,0.63,0],[0.1,0.2,0],[0.9,0.2,0],[0.5,0,0],[0.995,0.63,0],[0.72,0.99,0],[0.5,1,0],[0.28,0.99,0]];verticalLabelPosition=bottom;align=center;verticalAlign=top;shape=mxgraph.kubernetes.icon;prIcon=deploy" vertex="1" parent="1">
          <mxGeometry x="157" y="550" width="50" height="48" as="geometry" />
        </mxCell>
        <mxCell id="M2kr-xBNgNFIODvM_Phu-20" value="" style="sketch=0;html=1;dashed=0;whitespace=wrap;fillColor=#2875E2;strokeColor=#ffffff;points=[[0.005,0.63,0],[0.1,0.2,0],[0.9,0.2,0],[0.5,0,0],[0.995,0.63,0],[0.72,0.99,0],[0.5,1,0],[0.28,0.99,0]];verticalLabelPosition=bottom;align=center;verticalAlign=top;shape=mxgraph.kubernetes.icon;prIcon=deploy" vertex="1" parent="1">
          <mxGeometry x="288" y="550" width="50" height="48" as="geometry" />
        </mxCell>
        <mxCell id="M2kr-xBNgNFIODvM_Phu-21" value="" style="sketch=0;html=1;dashed=0;whitespace=wrap;fillColor=#2875E2;strokeColor=#ffffff;points=[[0.005,0.63,0],[0.1,0.2,0],[0.9,0.2,0],[0.5,0,0],[0.995,0.63,0],[0.72,0.99,0],[0.5,1,0],[0.28,0.99,0]];verticalLabelPosition=bottom;align=center;verticalAlign=top;shape=mxgraph.kubernetes.icon;prIcon=deploy" vertex="1" parent="1">
          <mxGeometry x="418" y="550" width="50" height="48" as="geometry" />
        </mxCell>
        <mxCell id="M2kr-xBNgNFIODvM_Phu-22" value="" style="sketch=0;html=1;dashed=0;whitespace=wrap;fillColor=#2875E2;strokeColor=#ffffff;points=[[0.005,0.63,0],[0.1,0.2,0],[0.9,0.2,0],[0.5,0,0],[0.995,0.63,0],[0.72,0.99,0],[0.5,1,0],[0.28,0.99,0]];verticalLabelPosition=bottom;align=center;verticalAlign=top;shape=mxgraph.kubernetes.icon;prIcon=deploy" vertex="1" parent="1">
          <mxGeometry x="548" y="550" width="50" height="48" as="geometry" />
        </mxCell>
        <mxCell id="M2kr-xBNgNFIODvM_Phu-23" value="" style="sketch=0;html=1;dashed=0;whitespace=wrap;fillColor=#2875E2;strokeColor=#ffffff;points=[[0.005,0.63,0],[0.1,0.2,0],[0.9,0.2,0],[0.5,0,0],[0.995,0.63,0],[0.72,0.99,0],[0.5,1,0],[0.28,0.99,0]];verticalLabelPosition=bottom;align=center;verticalAlign=top;shape=mxgraph.kubernetes.icon;prIcon=deploy" vertex="1" parent="1">
          <mxGeometry x="678" y="550" width="50" height="48" as="geometry" />
        </mxCell>
        <mxCell id="M2kr-xBNgNFIODvM_Phu-24" value="" style="sketch=0;html=1;dashed=0;whitespace=wrap;fillColor=#2875E2;strokeColor=#ffffff;points=[[0.005,0.63,0],[0.1,0.2,0],[0.9,0.2,0],[0.5,0,0],[0.995,0.63,0],[0.72,0.99,0],[0.5,1,0],[0.28,0.99,0]];verticalLabelPosition=bottom;align=center;verticalAlign=top;shape=mxgraph.kubernetes.icon;prIcon=deploy" vertex="1" parent="1">
          <mxGeometry x="810" y="550" width="50" height="48" as="geometry" />
        </mxCell>
        <mxCell id="M2kr-xBNgNFIODvM_Phu-25" value="" style="sketch=0;html=1;dashed=0;whitespace=wrap;fillColor=#2875E2;strokeColor=#ffffff;points=[[0.005,0.63,0],[0.1,0.2,0],[0.9,0.2,0],[0.5,0,0],[0.995,0.63,0],[0.72,0.99,0],[0.5,1,0],[0.28,0.99,0]];verticalLabelPosition=bottom;align=center;verticalAlign=top;shape=mxgraph.kubernetes.icon;prIcon=deploy" vertex="1" parent="1">
          <mxGeometry x="938" y="550" width="50" height="48" as="geometry" />
        </mxCell>
        <mxCell id="M2kr-xBNgNFIODvM_Phu-26" value="" style="sketch=0;html=1;dashed=0;whitespace=wrap;fillColor=#2875E2;strokeColor=#ffffff;points=[[0.005,0.63,0],[0.1,0.2,0],[0.9,0.2,0],[0.5,0,0],[0.995,0.63,0],[0.72,0.99,0],[0.5,1,0],[0.28,0.99,0]];verticalLabelPosition=bottom;align=center;verticalAlign=top;shape=mxgraph.kubernetes.icon;prIcon=api" vertex="1" parent="1">
          <mxGeometry x="109" y="490" width="50" height="48" as="geometry" />
        </mxCell>
        <mxCell id="M2kr-xBNgNFIODvM_Phu-28" value="" style="sketch=0;html=1;dashed=0;whitespace=wrap;fillColor=#2875E2;strokeColor=#ffffff;points=[[0.005,0.63,0],[0.1,0.2,0],[0.9,0.2,0],[0.5,0,0],[0.995,0.63,0],[0.72,0.99,0],[0.5,1,0],[0.28,0.99,0]];verticalLabelPosition=bottom;align=center;verticalAlign=top;shape=mxgraph.kubernetes.icon;prIcon=cronjob" vertex="1" parent="1">
          <mxGeometry x="159" y="490" width="50" height="48" as="geometry" />
        </mxCell>
        <mxCell id="M2kr-xBNgNFIODvM_Phu-31" value="" style="sketch=0;html=1;dashed=0;whitespace=wrap;fillColor=#2875E2;strokeColor=#ffffff;points=[[0.005,0.63,0],[0.1,0.2,0],[0.9,0.2,0],[0.5,0,0],[0.995,0.63,0],[0.72,0.99,0],[0.5,1,0],[0.28,0.99,0]];verticalLabelPosition=bottom;align=center;verticalAlign=top;shape=mxgraph.kubernetes.icon;prIcon=api" vertex="1" parent="1">
          <mxGeometry x="265" y="490" width="50" height="48" as="geometry" />
        </mxCell>
        <mxCell id="M2kr-xBNgNFIODvM_Phu-32" value="" style="sketch=0;html=1;dashed=0;whitespace=wrap;fillColor=#2875E2;strokeColor=#ffffff;points=[[0.005,0.63,0],[0.1,0.2,0],[0.9,0.2,0],[0.5,0,0],[0.995,0.63,0],[0.72,0.99,0],[0.5,1,0],[0.28,0.99,0]];verticalLabelPosition=bottom;align=center;verticalAlign=top;shape=mxgraph.kubernetes.icon;prIcon=api" vertex="1" parent="1">
          <mxGeometry x="395" y="490" width="50" height="48" as="geometry" />
        </mxCell>
        <mxCell id="M2kr-xBNgNFIODvM_Phu-33" value="" style="sketch=0;html=1;dashed=0;whitespace=wrap;fillColor=#2875E2;strokeColor=#ffffff;points=[[0.005,0.63,0],[0.1,0.2,0],[0.9,0.2,0],[0.5,0,0],[0.995,0.63,0],[0.72,0.99,0],[0.5,1,0],[0.28,0.99,0]];verticalLabelPosition=bottom;align=center;verticalAlign=top;shape=mxgraph.kubernetes.icon;prIcon=api" vertex="1" parent="1">
          <mxGeometry x="529" y="490" width="50" height="48" as="geometry" />
        </mxCell>
        <mxCell id="M2kr-xBNgNFIODvM_Phu-34" value="" style="sketch=0;html=1;dashed=0;whitespace=wrap;fillColor=#2875E2;strokeColor=#ffffff;points=[[0.005,0.63,0],[0.1,0.2,0],[0.9,0.2,0],[0.5,0,0],[0.995,0.63,0],[0.72,0.99,0],[0.5,1,0],[0.28,0.99,0]];verticalLabelPosition=bottom;align=center;verticalAlign=top;shape=mxgraph.kubernetes.icon;prIcon=api" vertex="1" parent="1">
          <mxGeometry x="655" y="490" width="50" height="48" as="geometry" />
        </mxCell>
        <mxCell id="M2kr-xBNgNFIODvM_Phu-35" value="" style="sketch=0;html=1;dashed=0;whitespace=wrap;fillColor=#2875E2;strokeColor=#ffffff;points=[[0.005,0.63,0],[0.1,0.2,0],[0.9,0.2,0],[0.5,0,0],[0.995,0.63,0],[0.72,0.99,0],[0.5,1,0],[0.28,0.99,0]];verticalLabelPosition=bottom;align=center;verticalAlign=top;shape=mxgraph.kubernetes.icon;prIcon=api" vertex="1" parent="1">
          <mxGeometry x="785" y="490" width="50" height="48" as="geometry" />
        </mxCell>
        <mxCell id="M2kr-xBNgNFIODvM_Phu-36" value="" style="sketch=0;html=1;dashed=0;whitespace=wrap;fillColor=#2875E2;strokeColor=#ffffff;points=[[0.005,0.63,0],[0.1,0.2,0],[0.9,0.2,0],[0.5,0,0],[0.995,0.63,0],[0.72,0.99,0],[0.5,1,0],[0.28,0.99,0]];verticalLabelPosition=bottom;align=center;verticalAlign=top;shape=mxgraph.kubernetes.icon;prIcon=api" vertex="1" parent="1">
          <mxGeometry x="915" y="490" width="50" height="48" as="geometry" />
        </mxCell>
        <mxCell id="M2kr-xBNgNFIODvM_Phu-44" value="" style="sketch=0;html=1;dashed=0;whitespace=wrap;fillColor=#2875E2;strokeColor=#ffffff;points=[[0.005,0.63,0],[0.1,0.2,0],[0.9,0.2,0],[0.5,0,0],[0.995,0.63,0],[0.72,0.99,0],[0.5,1,0],[0.28,0.99,0]];verticalLabelPosition=bottom;align=center;verticalAlign=top;shape=mxgraph.kubernetes.icon;prIcon=svc" vertex="1" parent="1">
          <mxGeometry x="135" y="390" width="50" height="48" as="geometry" />
        </mxCell>
        <mxCell id="M2kr-xBNgNFIODvM_Phu-45" value="" style="sketch=0;html=1;dashed=0;whitespace=wrap;fillColor=#2875E2;strokeColor=#ffffff;points=[[0.005,0.63,0],[0.1,0.2,0],[0.9,0.2,0],[0.5,0,0],[0.995,0.63,0],[0.72,0.99,0],[0.5,1,0],[0.28,0.99,0]];verticalLabelPosition=bottom;align=center;verticalAlign=top;shape=mxgraph.kubernetes.icon;prIcon=svc" vertex="1" parent="1">
          <mxGeometry x="915" y="390" width="50" height="48" as="geometry" />
        </mxCell>
        <mxCell id="M2kr-xBNgNFIODvM_Phu-46" value="" style="sketch=0;html=1;dashed=0;whitespace=wrap;fillColor=#2875E2;strokeColor=#ffffff;points=[[0.005,0.63,0],[0.1,0.2,0],[0.9,0.2,0],[0.5,0,0],[0.995,0.63,0],[0.72,0.99,0],[0.5,1,0],[0.28,0.99,0]];verticalLabelPosition=bottom;align=center;verticalAlign=top;shape=mxgraph.kubernetes.icon;prIcon=svc" vertex="1" parent="1">
          <mxGeometry x="785" y="390" width="50" height="48" as="geometry" />
        </mxCell>
        <mxCell id="M2kr-xBNgNFIODvM_Phu-47" value="" style="sketch=0;html=1;dashed=0;whitespace=wrap;fillColor=#2875E2;strokeColor=#ffffff;points=[[0.005,0.63,0],[0.1,0.2,0],[0.9,0.2,0],[0.5,0,0],[0.995,0.63,0],[0.72,0.99,0],[0.5,1,0],[0.28,0.99,0]];verticalLabelPosition=bottom;align=center;verticalAlign=top;shape=mxgraph.kubernetes.icon;prIcon=svc" vertex="1" parent="1">
          <mxGeometry x="655" y="390" width="50" height="48" as="geometry" />
        </mxCell>
        <mxCell id="M2kr-xBNgNFIODvM_Phu-48" value="" style="sketch=0;html=1;dashed=0;whitespace=wrap;fillColor=#2875E2;strokeColor=#ffffff;points=[[0.005,0.63,0],[0.1,0.2,0],[0.9,0.2,0],[0.5,0,0],[0.995,0.63,0],[0.72,0.99,0],[0.5,1,0],[0.28,0.99,0]];verticalLabelPosition=bottom;align=center;verticalAlign=top;shape=mxgraph.kubernetes.icon;prIcon=svc" vertex="1" parent="1">
          <mxGeometry x="529" y="390" width="50" height="48" as="geometry" />
        </mxCell>
        <mxCell id="M2kr-xBNgNFIODvM_Phu-49" value="" style="sketch=0;html=1;dashed=0;whitespace=wrap;fillColor=#2875E2;strokeColor=#ffffff;points=[[0.005,0.63,0],[0.1,0.2,0],[0.9,0.2,0],[0.5,0,0],[0.995,0.63,0],[0.72,0.99,0],[0.5,1,0],[0.28,0.99,0]];verticalLabelPosition=bottom;align=center;verticalAlign=top;shape=mxgraph.kubernetes.icon;prIcon=svc" vertex="1" parent="1">
          <mxGeometry x="395" y="390" width="50" height="48" as="geometry" />
        </mxCell>
        <mxCell id="M2kr-xBNgNFIODvM_Phu-50" value="" style="sketch=0;html=1;dashed=0;whitespace=wrap;fillColor=#2875E2;strokeColor=#ffffff;points=[[0.005,0.63,0],[0.1,0.2,0],[0.9,0.2,0],[0.5,0,0],[0.995,0.63,0],[0.72,0.99,0],[0.5,1,0],[0.28,0.99,0]];verticalLabelPosition=bottom;align=center;verticalAlign=top;shape=mxgraph.kubernetes.icon;prIcon=svc" vertex="1" parent="1">
          <mxGeometry x="265" y="390" width="50" height="48" as="geometry" />
        </mxCell>
        <mxCell id="M2kr-xBNgNFIODvM_Phu-52" value="" style="aspect=fixed;html=1;points=[];align=center;image;fontSize=12;image=img/lib/azure2/containers/Kubernetes_Services.svg;" vertex="1" parent="1">
          <mxGeometry x="952" y="110" width="68" height="60" as="geometry" />
        </mxCell>
        <mxCell id="M2kr-xBNgNFIODvM_Phu-53" value="" style="sketch=0;html=1;dashed=0;whitespace=wrap;fillColor=#2875E2;strokeColor=#ffffff;points=[[0.005,0.63,0],[0.1,0.2,0],[0.9,0.2,0],[0.5,0,0],[0.995,0.63,0],[0.72,0.99,0],[0.5,1,0],[0.28,0.99,0]];verticalLabelPosition=bottom;align=center;verticalAlign=top;shape=mxgraph.kubernetes.icon;prIcon=ds" vertex="1" parent="1">
          <mxGeometry x="135" y="440" width="50" height="48" as="geometry" />
        </mxCell>
        <mxCell id="M2kr-xBNgNFIODvM_Phu-55" value="" style="sketch=0;html=1;dashed=0;whitespace=wrap;fillColor=#2875E2;strokeColor=#ffffff;points=[[0.005,0.63,0],[0.1,0.2,0],[0.9,0.2,0],[0.5,0,0],[0.995,0.63,0],[0.72,0.99,0],[0.5,1,0],[0.28,0.99,0]];verticalLabelPosition=bottom;align=center;verticalAlign=top;shape=mxgraph.kubernetes.icon;prIcon=ds" vertex="1" parent="1">
          <mxGeometry x="265" y="440" width="50" height="48" as="geometry" />
        </mxCell>
        <mxCell id="M2kr-xBNgNFIODvM_Phu-56" value="" style="sketch=0;html=1;dashed=0;whitespace=wrap;fillColor=#2875E2;strokeColor=#ffffff;points=[[0.005,0.63,0],[0.1,0.2,0],[0.9,0.2,0],[0.5,0,0],[0.995,0.63,0],[0.72,0.99,0],[0.5,1,0],[0.28,0.99,0]];verticalLabelPosition=bottom;align=center;verticalAlign=top;shape=mxgraph.kubernetes.icon;prIcon=ds" vertex="1" parent="1">
          <mxGeometry x="395" y="440" width="50" height="48" as="geometry" />
        </mxCell>
        <mxCell id="M2kr-xBNgNFIODvM_Phu-57" value="" style="sketch=0;html=1;dashed=0;whitespace=wrap;fillColor=#2875E2;strokeColor=#ffffff;points=[[0.005,0.63,0],[0.1,0.2,0],[0.9,0.2,0],[0.5,0,0],[0.995,0.63,0],[0.72,0.99,0],[0.5,1,0],[0.28,0.99,0]];verticalLabelPosition=bottom;align=center;verticalAlign=top;shape=mxgraph.kubernetes.icon;prIcon=ds" vertex="1" parent="1">
          <mxGeometry x="530" y="440" width="50" height="48" as="geometry" />
        </mxCell>
        <mxCell id="M2kr-xBNgNFIODvM_Phu-58" value="" style="sketch=0;html=1;dashed=0;whitespace=wrap;fillColor=#2875E2;strokeColor=#ffffff;points=[[0.005,0.63,0],[0.1,0.2,0],[0.9,0.2,0],[0.5,0,0],[0.995,0.63,0],[0.72,0.99,0],[0.5,1,0],[0.28,0.99,0]];verticalLabelPosition=bottom;align=center;verticalAlign=top;shape=mxgraph.kubernetes.icon;prIcon=ds" vertex="1" parent="1">
          <mxGeometry x="655" y="440" width="50" height="48" as="geometry" />
        </mxCell>
        <mxCell id="M2kr-xBNgNFIODvM_Phu-59" value="" style="sketch=0;html=1;dashed=0;whitespace=wrap;fillColor=#2875E2;strokeColor=#ffffff;points=[[0.005,0.63,0],[0.1,0.2,0],[0.9,0.2,0],[0.5,0,0],[0.995,0.63,0],[0.72,0.99,0],[0.5,1,0],[0.28,0.99,0]];verticalLabelPosition=bottom;align=center;verticalAlign=top;shape=mxgraph.kubernetes.icon;prIcon=ds" vertex="1" parent="1">
          <mxGeometry x="785" y="440" width="50" height="48" as="geometry" />
        </mxCell>
        <mxCell id="M2kr-xBNgNFIODvM_Phu-60" value="" style="sketch=0;html=1;dashed=0;whitespace=wrap;fillColor=#2875E2;strokeColor=#ffffff;points=[[0.005,0.63,0],[0.1,0.2,0],[0.9,0.2,0],[0.5,0,0],[0.995,0.63,0],[0.72,0.99,0],[0.5,1,0],[0.28,0.99,0]];verticalLabelPosition=bottom;align=center;verticalAlign=top;shape=mxgraph.kubernetes.icon;prIcon=ds" vertex="1" parent="1">
          <mxGeometry x="915" y="440" width="50" height="48" as="geometry" />
        </mxCell>
        <mxCell id="M2kr-xBNgNFIODvM_Phu-92" style="edgeStyle=orthogonalEdgeStyle;rounded=0;orthogonalLoop=1;jettySize=auto;html=1;exitX=0.5;exitY=0;exitDx=0;exitDy=0;exitPerimeter=0;entryX=0.5;entryY=0;entryDx=0;entryDy=0;" edge="1" parent="1" source="M2kr-xBNgNFIODvM_Phu-62" target="M2kr-xBNgNFIODvM_Phu-74">
          <mxGeometry relative="1" as="geometry">
            <mxPoint x="540" y="260" as="targetPoint" />
            <Array as="points">
              <mxPoint x="940" y="270" />
              <mxPoint x="540" y="270" />
              <mxPoint x="540" y="250" />
            </Array>
          </mxGeometry>
        </mxCell>
        <mxCell id="M2kr-xBNgNFIODvM_Phu-62" value="" style="sketch=0;html=1;dashed=0;whitespace=wrap;fillColor=#2875E2;strokeColor=#ffffff;points=[[0.005,0.63,0],[0.1,0.2,0],[0.9,0.2,0],[0.5,0,0],[0.995,0.63,0],[0.72,0.99,0],[0.5,1,0],[0.28,0.99,0]];verticalLabelPosition=bottom;align=center;verticalAlign=top;shape=mxgraph.kubernetes.icon;prIcon=ep" vertex="1" parent="1">
          <mxGeometry x="915" y="290" width="50" height="48" as="geometry" />
        </mxCell>
        <mxCell id="M2kr-xBNgNFIODvM_Phu-97" style="edgeStyle=orthogonalEdgeStyle;rounded=0;orthogonalLoop=1;jettySize=auto;html=1;exitX=0.5;exitY=0;exitDx=0;exitDy=0;exitPerimeter=0;endArrow=none;endFill=0;" edge="1" parent="1" source="M2kr-xBNgNFIODvM_Phu-64">
          <mxGeometry relative="1" as="geometry">
            <mxPoint x="810" y="270" as="targetPoint" />
          </mxGeometry>
        </mxCell>
        <mxCell id="M2kr-xBNgNFIODvM_Phu-64" value="" style="sketch=0;html=1;dashed=0;whitespace=wrap;fillColor=#2875E2;strokeColor=#ffffff;points=[[0.005,0.63,0],[0.1,0.2,0],[0.9,0.2,0],[0.5,0,0],[0.995,0.63,0],[0.72,0.99,0],[0.5,1,0],[0.28,0.99,0]];verticalLabelPosition=bottom;align=center;verticalAlign=top;shape=mxgraph.kubernetes.icon;prIcon=ep" vertex="1" parent="1">
          <mxGeometry x="785" y="290" width="50" height="48" as="geometry" />
        </mxCell>
        <mxCell id="M2kr-xBNgNFIODvM_Phu-99" style="edgeStyle=orthogonalEdgeStyle;rounded=0;orthogonalLoop=1;jettySize=auto;html=1;exitX=0.5;exitY=0;exitDx=0;exitDy=0;exitPerimeter=0;endArrow=none;endFill=0;" edge="1" parent="1" source="M2kr-xBNgNFIODvM_Phu-65" target="M2kr-xBNgNFIODvM_Phu-71">
          <mxGeometry relative="1" as="geometry" />
        </mxCell>
        <mxCell id="M2kr-xBNgNFIODvM_Phu-65" value="" style="sketch=0;html=1;dashed=0;whitespace=wrap;fillColor=#2875E2;strokeColor=#ffffff;points=[[0.005,0.63,0],[0.1,0.2,0],[0.9,0.2,0],[0.5,0,0],[0.995,0.63,0],[0.72,0.99,0],[0.5,1,0],[0.28,0.99,0]];verticalLabelPosition=bottom;align=center;verticalAlign=top;shape=mxgraph.kubernetes.icon;prIcon=ep" vertex="1" parent="1">
          <mxGeometry x="655" y="290" width="50" height="48" as="geometry" />
        </mxCell>
        <mxCell id="M2kr-xBNgNFIODvM_Phu-101" style="edgeStyle=orthogonalEdgeStyle;rounded=0;orthogonalLoop=1;jettySize=auto;html=1;exitX=0.5;exitY=0;exitDx=0;exitDy=0;exitPerimeter=0;endArrow=none;endFill=0;" edge="1" parent="1" source="M2kr-xBNgNFIODvM_Phu-66">
          <mxGeometry relative="1" as="geometry">
            <mxPoint x="520" y="270" as="targetPoint" />
          </mxGeometry>
        </mxCell>
        <mxCell id="M2kr-xBNgNFIODvM_Phu-66" value="" style="sketch=0;html=1;dashed=0;whitespace=wrap;fillColor=#2875E2;strokeColor=#ffffff;points=[[0.005,0.63,0],[0.1,0.2,0],[0.9,0.2,0],[0.5,0,0],[0.995,0.63,0],[0.72,0.99,0],[0.5,1,0],[0.28,0.99,0]];verticalLabelPosition=bottom;align=center;verticalAlign=top;shape=mxgraph.kubernetes.icon;prIcon=ep" vertex="1" parent="1">
          <mxGeometry x="525" y="290" width="50" height="48" as="geometry" />
        </mxCell>
        <mxCell id="M2kr-xBNgNFIODvM_Phu-102" style="edgeStyle=orthogonalEdgeStyle;rounded=0;orthogonalLoop=1;jettySize=auto;html=1;exitX=0.5;exitY=0;exitDx=0;exitDy=0;exitPerimeter=0;endArrow=none;endFill=0;" edge="1" parent="1" source="M2kr-xBNgNFIODvM_Phu-67" target="M2kr-xBNgNFIODvM_Phu-71">
          <mxGeometry relative="1" as="geometry" />
        </mxCell>
        <mxCell id="M2kr-xBNgNFIODvM_Phu-67" value="" style="sketch=0;html=1;dashed=0;whitespace=wrap;fillColor=#2875E2;strokeColor=#ffffff;points=[[0.005,0.63,0],[0.1,0.2,0],[0.9,0.2,0],[0.5,0,0],[0.995,0.63,0],[0.72,0.99,0],[0.5,1,0],[0.28,0.99,0]];verticalLabelPosition=bottom;align=center;verticalAlign=top;shape=mxgraph.kubernetes.icon;prIcon=ep" vertex="1" parent="1">
          <mxGeometry x="395" y="290" width="50" height="48" as="geometry" />
        </mxCell>
        <mxCell id="M2kr-xBNgNFIODvM_Phu-91" style="edgeStyle=orthogonalEdgeStyle;rounded=0;orthogonalLoop=1;jettySize=auto;html=1;endArrow=none;endFill=0;" edge="1" parent="1" source="M2kr-xBNgNFIODvM_Phu-68">
          <mxGeometry relative="1" as="geometry">
            <mxPoint x="290" y="270" as="targetPoint" />
          </mxGeometry>
        </mxCell>
        <mxCell id="M2kr-xBNgNFIODvM_Phu-68" value="" style="sketch=0;html=1;dashed=0;whitespace=wrap;fillColor=#2875E2;strokeColor=#ffffff;points=[[0.005,0.63,0],[0.1,0.2,0],[0.9,0.2,0],[0.5,0,0],[0.995,0.63,0],[0.72,0.99,0],[0.5,1,0],[0.28,0.99,0]];verticalLabelPosition=bottom;align=center;verticalAlign=top;shape=mxgraph.kubernetes.icon;prIcon=ep" vertex="1" parent="1">
          <mxGeometry x="265" y="290" width="50" height="48" as="geometry" />
        </mxCell>
        <mxCell id="M2kr-xBNgNFIODvM_Phu-88" style="edgeStyle=orthogonalEdgeStyle;rounded=0;orthogonalLoop=1;jettySize=auto;html=1;exitX=0.5;exitY=0;exitDx=0;exitDy=0;exitPerimeter=0;entryX=0.5;entryY=0;entryDx=0;entryDy=0;" edge="1" parent="1" source="M2kr-xBNgNFIODvM_Phu-69" target="M2kr-xBNgNFIODvM_Phu-74">
          <mxGeometry relative="1" as="geometry" />
        </mxCell>
        <mxCell id="M2kr-xBNgNFIODvM_Phu-69" value="" style="sketch=0;html=1;dashed=0;whitespace=wrap;fillColor=#2875E2;strokeColor=#ffffff;points=[[0.005,0.63,0],[0.1,0.2,0],[0.9,0.2,0],[0.5,0,0],[0.995,0.63,0],[0.72,0.99,0],[0.5,1,0],[0.28,0.99,0]];verticalLabelPosition=bottom;align=center;verticalAlign=top;shape=mxgraph.kubernetes.icon;prIcon=ep" vertex="1" parent="1">
          <mxGeometry x="135" y="290" width="50" height="48" as="geometry" />
        </mxCell>
        <mxCell id="M2kr-xBNgNFIODvM_Phu-72" value="" style="shape=image;verticalLabelPosition=bottom;labelBackgroundColor=#ffffff;verticalAlign=top;aspect=fixed;imageAspect=0;image=data:image/svg+xml,PHN2ZyB4bWxuczpkYz0iaHR0cDovL3B1cmwub3JnL2RjL2VsZW1lbnRzLzEuMS8iIHhtbG5zOmNjPSJodHRwOi8vY3JlYXRpdmVjb21tb25zLm9yZy9ucyMiIHhtbG5zOnJkZj0iaHR0cDovL3d3dy53My5vcmcvMTk5OS8wMi8yMi1yZGYtc3ludGF4LW5zIyIgeG1sbnM6c3ZnPSJodHRwOi8vd3d3LnczLm9yZy8yMDAwL3N2ZyIgeG1sbnM9Imh0dHA6Ly93d3cudzMub3JnLzIwMDAvc3ZnIiB4bWxuczpzb2RpcG9kaT0iaHR0cDovL3NvZGlwb2RpLnNvdXJjZWZvcmdlLm5ldC9EVEQvc29kaXBvZGktMC5kdGQiIHhtbG5zOmlua3NjYXBlPSJodHRwOi8vd3d3Lmlua3NjYXBlLm9yZy9uYW1lc3BhY2VzL2lua3NjYXBlIiB2ZXJzaW9uPSIxLjEiIGlkPSJzdmc0OTI1OSIgaW5rc2NhcGU6dmVyc2lvbj0iMC45Mi4zICgyNDA1NTQ2LCAyMDE4LTAzLTExKSIgc29kaXBvZGk6ZG9jbmFtZT0iYXBwbGljYXRpb25fZ2F0ZXdheS5zdmciIHg9IjBweCIgeT0iMHB4IiB2aWV3Qm94PSIwIDAgMTAwLjMxIDEwMC4xMSIgeG1sOnNwYWNlPSJwcmVzZXJ2ZSIgd2lkdGg9IjEwMC4zMSIgaGVpZ2h0PSIxMDAuMTEiPjxtZXRhZGF0YSBpZD0ibWV0YWRhdGExNjMzNSI+PHJkZjpSREY+PGNjOldvcmsgcmRmOmFib3V0PSIiPjxkYzpmb3JtYXQ+aW1hZ2Uvc3ZnK3htbDwvZGM6Zm9ybWF0PjxkYzp0eXBlIHJkZjpyZXNvdXJjZT0iaHR0cDovL3B1cmwub3JnL2RjL2RjbWl0eXBlL1N0aWxsSW1hZ2UiLz48ZGM6dGl0bGUvPjwvY2M6V29yaz48L3JkZjpSREY+PC9tZXRhZGF0YT48ZGVmcyBpZD0iZGVmczE2MzMzIi8+JiN4YTs8ZmlsdGVyIGlkPSJmaWx0ZXJfMiI+JiN4YTsJPGZlR2F1c3NpYW5CbHVyIGlkPSJmZUdhdXNzaWFuQmx1cjQ5MTg0IiBzdGREZXZpYXRpb249IjIiLz4mI3hhOzwvZmlsdGVyPiYjeGE7PHNvZGlwb2RpOm5hbWVkdmlldyBib3JkZXJjb2xvcj0iIzY2NjY2NiIgYm9yZGVyb3BhY2l0eT0iMSIgZml0LW1hcmdpbi1ib3R0b209IjAiIGZpdC1tYXJnaW4tbGVmdD0iMCIgZml0LW1hcmdpbi1yaWdodD0iMCIgZml0LW1hcmdpbi10b3A9IjAiIGdyaWR0b2xlcmFuY2U9IjEwIiBndWlkZXRvbGVyYW5jZT0iMTAiIGlkPSJuYW1lZHZpZXc0OTI2MSIgaW5rc2NhcGU6Y3VycmVudC1sYXllcj0ic3ZnNDkyNTkiIGlua3NjYXBlOmN4PSIzNy42OTE3NzEiIGlua3NjYXBlOmN5PSI0OC40MTY5MjYiIGlua3NjYXBlOnBhZ2VvcGFjaXR5PSIwIiBpbmtzY2FwZTpwYWdlc2hhZG93PSIyIiBpbmtzY2FwZTp3aW5kb3ctaGVpZ2h0PSIxMDE3IiBpbmtzY2FwZTp3aW5kb3ctbWF4aW1pemVkPSIxIiBpbmtzY2FwZTp3aW5kb3ctd2lkdGg9IjE5MjAiIGlua3NjYXBlOndpbmRvdy14PSItOCIgaW5rc2NhcGU6d2luZG93LXk9Ii04IiBpbmtzY2FwZTp6b29tPSI1LjIxOTMxOTgiIG9iamVjdHRvbGVyYW5jZT0iMTAiIHBhZ2Vjb2xvcj0iI2ZmZmZmZiIgc2hvd2dyaWQ9ImZhbHNlIj4mI3hhOwk8L3NvZGlwb2RpOm5hbWVkdmlldz4mI3hhOyYjeGE7PHBhdGggaWQ9InBhdGg0OTE5NyIgaW5rc2NhcGU6Y29ubmVjdG9yLWN1cnZhdHVyZT0iMCIgc3R5bGU9ImZpbGw6IzdmYmEwMCIgZD0ibSA1MC4wNSwxMDAuMTEgYyAtMi40LDAgLTQuOCwtMS4wMSAtNi42LC0yLjgxIEwgMi44LDU2LjY2IEMgMSw1NC44NiAwLDUyLjQ2IDAsNTAuMDUgYyAwLC0yLjQgMSwtNC44IDIuOCwtNi42IEwgNDMuNDUsMi44IEMgNDUuMjUsMSA0Ny42NSwwIDUwLjA1LDAgYyAyLjQxLDAgNC44MSwxIDYuNjEsMi44IEwgOTcuNSw0My42NSBjIDEuOCwxLjggMi44MSw0IDIuODEsNi42IDAsMi40MSAtMS4wMSw0LjgxIC0yLjgxLDYuNjEgTCA1Ni42Niw5Ny4zIGMgLTEuOCwxLjggLTQuMiwyLjgxIC02LjYxLDIuODEgeiIvPiYjeGE7JiN4YTs8cGF0aCBpZD0icGF0aDQ5MjA1IiBpbmtzY2FwZTpjb25uZWN0b3ItY3VydmF0dXJlPSIwIiBzdHlsZT0iZmlsbDojZmZmZmZmIiBkPSJtIDU5LjU0LDM3LjIgYyAtMi44LDIuMTQgLTYuMDksMy4xOSAtOS4zNywzLjE5IC00LjY0LDAgLTkuMjQsLTIuMDkgLTEyLjI3LC02LjA2IC01LjE5LC02Ljc3IC0zLjkxLC0xNi40NiAyLjg3LC0yMS42NSAyLjgsLTIuMTUgNi4xLC0zLjE4IDkuMzcsLTMuMTggNC42NSwwIDkuMjQsMi4wOSAxMi4yOCw2LjA2IDUuMTgsNi43OCAzLjg5LDE2LjQ2IC0yLjg4LDIxLjY0IHoiLz4mI3hhOyYjeGE7PHBhdGggaWQ9InBhdGg0OTIxMyIgaW5rc2NhcGU6Y29ubmVjdG9yLWN1cnZhdHVyZT0iMCIgc3R5bGU9ImZpbGw6I2ZmZmZmZjtmaWxsLW9wYWNpdHk6MC4xNSIgZD0iTSA1Ni42NiwyLjggQyA1NC44NiwxIDUyLjQ2LDAgNTAuMDUsMCBjIC0yLjQsMCAtNC44LDEgLTYuNiwyLjggTCAyLjgsNDMuNDUgQyAxLDQ1LjI1IDAsNDcuNjUgMCw1MC4wNSBjIDAsMi40MSAxLDQuODEgMi44LDYuNjEgTCAyNS44Myw3OS42OSA2OS4yNywxNS40MiBaIi8+JiN4YTsmI3hhOzxwYXRoIGlkPSJwYXRoNDkyMjEiIGlua3NjYXBlOmNvbm5lY3Rvci1jdXJ2YXR1cmU9IjAiIHN0eWxlPSJmaWxsOiNmZmZmZmYiIGQ9Ik0gNTAuMDUsOTEuMyA2My4yNyw3OC4wOCBIIDUzLjg2IFYgMzguMzQgaCAtNy44MSB2IDM5Ljc0IGggLTkuMjEgeiIvPiYjeGE7JiN4YTs8cGF0aCBpZD0icGF0aDQ5MjI5IiBpbmtzY2FwZTpjb25uZWN0b3ItY3VydmF0dXJlPSIwIiBzdHlsZT0iZmlsbDojZmZmZmZmIiBkPSJNIDc4Ljc0LDY3LjA0IFYgNDguMzUgbCAtNi41MSw2LjUxIC0xNi45MSwtMTYuOTEgLTUuNjYsNS42NyAxNi45MSwxNi45IC02LjUyLDYuNTIgeiIvPiYjeGE7JiN4YTs8cGF0aCBpZD0icGF0aDQ5MjM3IiBpbmtzY2FwZTpjb25uZWN0b3ItY3VydmF0dXJlPSIwIiBzdHlsZT0iZmlsbDojZmZmZmZmIiBkPSJNIDIxLjM5LDY3LjExIEggNDAuMDggTCAzMy41Niw2MC41OSA1MC45NSw0My4yMSA0NS4yOCwzNy41NSAyNy45LDU0LjkzIDIxLjM5LDQ4LjQyIFoiLz4mI3hhOyYjeGE7PHBhdGggaWQ9InBhdGg0OTI0NSIgaW5rc2NhcGU6Y29ubmVjdG9yLWN1cnZhdHVyZT0iMCIgc3R5bGU9ImZpbGw6IzU5YjRkOSIgZD0ibSA1OC4yOSwzNS41OCBjIC0yLjQyLDEuODUgLTUuMjgsMi43NiAtOC4xMiwyLjc2IC00LjAzLDAgLTguMDEsLTEuODEgLTEwLjY0LC01LjI2IC00LjUsLTUuODcgLTMuMzksLTE0LjI3IDIuNDksLTE4Ljc3IDIuNDMsLTEuODYgNS4yOSwtMi43NSA4LjEyLC0yLjc1IDQuMDMsMCA4LjAyLDEuOCAxMC42NSw1LjI1IDQuNSw1Ljg3IDMuMzgsMTQuMjcgLTIuNSwxOC43NyB6Ii8+JiN4YTsmI3hhOzxwYXRoIGlkPSJwYXRoNDkyNTMiIGlua3NjYXBlOmNvbm5lY3Rvci1jdXJ2YXR1cmU9IjAiIHN0eWxlPSJmaWxsOiNmZmZmZmYiIGQ9Im0gNTUuODMsMjcuMyBjIDAuOTgsMS4yNyAyLjc4LDEuNDkgNC4wNCwwLjU0IDAuMDcsLTAuMDUgMC4xMiwtMC4xMiAwLjE4LC0wLjE3IDEuMjksMC45MSAyLjE4LDEuNTEgMi42OSwxLjg1IDAuMTUsLTAuMzkgMC4yNSwtMC43NiAwLjM2LC0xLjE1IC0wLjUzLC0wLjM5IC0xLjI2LC0wLjk1IC0yLjMsLTEuNzkgMC4zNCwtMC45IDAuMjMsLTEuOTUgLTAuMzksLTIuNzggLTAuOSwtMS4xNSAtMi40OCwtMS40NSAtMy43MiwtMC43MyAtMS4zNiwtMS4yMyAtMi44NiwtMi42MyAtNC40NCwtNC4yIDQuOTEsLTIuNjQgOC40LC0yLjI1IDguNCwtMi4yNSAtMC41OSwtMC43NSAtMS4yNCwtMS40IC0xLjkzLC0xLjk4IC0yLjA3LC0wLjMyIC01LjI5LC0wLjI5IC04Ljk3LDEuNjcgViAxNi4zIGMgLTEuMjIsLTEuMjggLTIuNDcsLTIuNjUgLTMuNzQsLTQuMTMgLTAuNiwwLjIgLTEuMiwwLjQ0IC0xLjc3LDAuNzMgMC45MywxLjUzIDIuMiwzLjA3IDMuNjIsNC41OCAwLDAuMDEgMCwwLjAxIDAuMDEsMC4wMSAtMS4xOSwwLjgzIC0yLjUxLDEuOTQgLTMuNzIsMy4yMyAtMC4xNiwwLjE2IC0wLjMxLDAuMzMgLTAuNDUsMC40OSAtMC43MywtMC4xNSAtMS41LC0wLjEgLTIuMjEsMC4xNSAtMS4yMSwtMi42MSAtMS4xMiwtNC43MSAtMC45MiwtNS44IC0wLjUzLDAuNTUgLTEuMDIsMS4xMyAtMS40NSwxLjc1IC0wLjMxLDEuMyAtMC40LDMuMTYgMC41Myw1LjQxIC0xLjA4LDEuNDIgLTEuMTMsMy40MiAwLDQuOSAwLjEsMC4xMiAwLjIsMC4yNCAwLjMsMC4zNSAtMC40OSwxLjY4IC0wLjcxLDMuMyAtMC43OCw0LjY5IDAuMTIsMC4xNyAwLjEyLDAuMzEgMC4yNSwwLjQ4IDAuNjQsMC44MyAxLjQ1LDEuNTIgMi4yMywyLjE1IC0wLjEsLTEuNDcgMC4wMSwtMy42NSAwLjkyLC02LjA5IDAuNjMsMC4wNCAxLjI3LC0wLjA2IDEuODYsLTAuMzEgMC4zNSwwLjMxIDAuNywwLjYxIDEuMDksMC45MiAxLjMxLDEuMDQgMi42MiwxLjg1IDMuOSwyLjQ5IC0wLjA2LDAuNjUgMC4xLDEuMzIgMC41MiwxLjg4IDAuOSwxLjE3IDIuNTcsMS4zOSAzLjc0LDAuNDkgMC4yNCwtMC4xOCAwLjQzLC0wLjQxIDAuNTksLTAuNjUgMi4wOSwwLjQ3IDMuOTEsMC41NSA1LjI2LDAuNTUgMC4yLDAgMS4xNiwtMS4zMSAxLjcxLC0yLjExIC0wLjgyLDAuMTcgLTMuMjYsMC41IC02LjU5LC0wLjQ1IC0wLjA4LC0wLjM4IC0wLjIzLC0wLjc0IC0wLjQ4LC0xLjA3IC0wLjg0LC0xLjEgLTIuMzksLTEuMzUgLTMuNTQsLTAuNiAtMS4xNiwtMC42MyAtMi4zNywtMS40MiAtMy42MiwtMi40MSAtMC4yNiwtMC4yIC0wLjUsLTAuNCAtMC43MywtMC42IDAuNzYsLTEuMiAwLjg0LC0yLjc0IDAuMTcsLTQuMDQgMC4xNSwtMC4xNSAwLjMsLTAuMzEgMC40NiwtMC40NiAxLjI0LC0xLjE2IDIuNDEsLTIuMDggMy41LC0yLjgyIC0wLjA1LC0wLjA0IC0wLjA5LC0wLjA5IC0wLjEzLC0wLjEzIDAuMDQsMC4wNCAwLjA4LDAuMDggMC4xMywwLjEyIHYgMCBjIDEuNjcsMS41NSAzLjQ0LDMuMDIgNS4xMiw0LjMzIC0wLjQ0LDAuOTQgLTAuMzcsMi4wOCAwLjMsMi45NyB6Ii8+JiN4YTs8L3N2Zz4=;dashed=1;" vertex="1" parent="1">
          <mxGeometry x="489.99999999999994" width="100" height="100" as="geometry" />
        </mxCell>
        <mxCell id="M2kr-xBNgNFIODvM_Phu-73" value="" style="shape=image;verticalLabelPosition=bottom;labelBackgroundColor=#ffffff;verticalAlign=top;aspect=fixed;imageAspect=0;image=data:image/svg+xml,PHN2ZyB4bWxuczpkYz0iaHR0cDovL3B1cmwub3JnL2RjL2VsZW1lbnRzLzEuMS8iIHhtbG5zOmNjPSJodHRwOi8vY3JlYXRpdmVjb21tb25zLm9yZy9ucyMiIHhtbG5zOnJkZj0iaHR0cDovL3d3dy53My5vcmcvMTk5OS8wMi8yMi1yZGYtc3ludGF4LW5zIyIgeG1sbnM6c3ZnPSJodHRwOi8vd3d3LnczLm9yZy8yMDAwL3N2ZyIgeG1sbnM9Imh0dHA6Ly93d3cudzMub3JnLzIwMDAvc3ZnIiB4bWxuczpzb2RpcG9kaT0iaHR0cDovL3NvZGlwb2RpLnNvdXJjZWZvcmdlLm5ldC9EVEQvc29kaXBvZGktMC5kdGQiIHhtbG5zOmlua3NjYXBlPSJodHRwOi8vd3d3Lmlua3NjYXBlLm9yZy9uYW1lc3BhY2VzL2lua3NjYXBlIiB2ZXJzaW9uPSIxLjEiIGlkPSJzdmc3ODgzMiIgaW5rc2NhcGU6dmVyc2lvbj0iMC45Mi4zICgyNDA1NTQ2LCAyMDE4LTAzLTExKSIgc29kaXBvZGk6ZG9jbmFtZT0iZG5zLnN2ZyIgeD0iMHB4IiB5PSIwcHgiIHZpZXdCb3g9IjAgMCA3Mi4wMDQ5OTUgNzEuOTk5OTk4IiB4bWw6c3BhY2U9InByZXNlcnZlIiB3aWR0aD0iNzIuMDA0OTk3IiBoZWlnaHQ9IjcyIj48bWV0YWRhdGEgaWQ9Im1ldGFkYXRhNjUwIj48cmRmOlJERj48Y2M6V29yayByZGY6YWJvdXQ9IiI+PGRjOmZvcm1hdD5pbWFnZS9zdmcreG1sPC9kYzpmb3JtYXQ+PGRjOnR5cGUgcmRmOnJlc291cmNlPSJodHRwOi8vcHVybC5vcmcvZGMvZGNtaXR5cGUvU3RpbGxJbWFnZSIvPjxkYzp0aXRsZS8+PC9jYzpXb3JrPjwvcmRmOlJERj48L21ldGFkYXRhPjxkZWZzIGlkPSJkZWZzNjQ4Ij4mI3hhOwkmI3hhOyYjeGE7CSYjeGE7JiN4YTsJJiN4YTsmI3hhOwkmI3hhOyYjeGE7CSYjeGE7JiN4YTsJJiN4YTsmI3hhOwkJJiN4YTsJJiN4YTsJCSYjeGE7CSYjeGE7CQkmI3hhOwkmI3hhOwkJJiN4YTsJPC9kZWZzPiYjeGE7PGZpbHRlciBpZD0iZmlsdGVyXzIiPiYjeGE7CTxmZUdhdXNzaWFuQmx1ciBpZD0iZmVHYXVzc2lhbkJsdXI3ODc3MyIgc3RkRGV2aWF0aW9uPSIyIi8+JiN4YTs8L2ZpbHRlcj4mI3hhOzxzb2RpcG9kaTpuYW1lZHZpZXcgYm9yZGVyY29sb3I9IiM2NjY2NjYiIGJvcmRlcm9wYWNpdHk9IjEiIGZpdC1tYXJnaW4tYm90dG9tPSIwIiBmaXQtbWFyZ2luLWxlZnQ9IjAiIGZpdC1tYXJnaW4tcmlnaHQ9IjAiIGZpdC1tYXJnaW4tdG9wPSIwIiBncmlkdG9sZXJhbmNlPSIxMCIgZ3VpZGV0b2xlcmFuY2U9IjEwIiBpZD0ibmFtZWR2aWV3Nzg4MzQiIGlua3NjYXBlOmN1cnJlbnQtbGF5ZXI9InN2Zzc4ODMyIiBpbmtzY2FwZTpjeD0iLTkuNTU1NDkxIiBpbmtzY2FwZTpjeT0iNDEuNDU4NDQ4IiBpbmtzY2FwZTpwYWdlb3BhY2l0eT0iMCIgaW5rc2NhcGU6cGFnZXNoYWRvdz0iMiIgaW5rc2NhcGU6d2luZG93LWhlaWdodD0iMTAxNyIgaW5rc2NhcGU6d2luZG93LW1heGltaXplZD0iMSIgaW5rc2NhcGU6d2luZG93LXdpZHRoPSIxOTIwIiBpbmtzY2FwZTp3aW5kb3cteD0iLTgiIGlua3NjYXBlOndpbmRvdy15PSItOCIgaW5rc2NhcGU6em9vbT0iNS43MTIyNDIyIiBvYmplY3R0b2xlcmFuY2U9IjEwIiBwYWdlY29sb3I9IiNmZmZmZmYiIHNob3dncmlkPSJmYWxzZSI+JiN4YTsJPC9zb2RpcG9kaTpuYW1lZHZpZXc+JiN4YTsmI3hhOzxjaXJjbGUgaWQ9ImVsbGlwc2U3ODc4NiIgc3R5bGU9ImZpbGw6IzAwNzJjNiIgY3g9IjM2LjAwNTAwMSIgY3k9IjM2IiByPSIzNiIvPiYjeGE7JiN4YTs8cGF0aCBpZD0icGF0aDc4Nzk0IiBpbmtzY2FwZTpjb25uZWN0b3ItY3VydmF0dXJlPSIwIiBzdHlsZT0iZmlsbDojZmZmZmZmO2ZpbGwtb3BhY2l0eTowLjIiIGQ9Im0gMTAuNTQ1LDYxLjQ2IGMgLTE0LjA2LC0xNC4wNiAtMTQuMDYsLTM2Ljg1IDAsLTUwLjkxIDE0LjA2LC0xNC4wNiAzNi44NiwtMTQuMDYgNTAuOTIsMCB6Ii8+JiN4YTsmI3hhOzxwYXRoIGlkPSJwYXRoNzg4MDIiIGlua3NjYXBlOmNvbm5lY3Rvci1jdXJ2YXR1cmU9IjAiIHN0eWxlPSJmaWxsOiNmZmZmZmY7ZmlsbC1vcGFjaXR5OjAuOCIgZD0ibSA2OS4xMzUsMzUuOTkgYyAwLC03LjQyIC0yLjUyLC0xNC41NyAtNy4xNiwtMjAuNCBsIC0wLjI2LC0wLjI3IGMgLTAuMTQsLTAuMTMgLTAuMTQsLTAuMjYgLTAuMjcsLTAuMzkgbCAtMi4xMiwtMi4yNiBjIC02LjIzLC02LjM2IC0xNC40NCwtOS44IC0yMy4zMiwtOS44IDAsMCAwLDAgLTAuMTMsMCBoIC0wLjEzIEMgMjYuOTk1LDMgMTguOTE1LDYuMzEgMTIuNjg1LDEyLjU0IGwgLTIuMjUsMi4zOSBjIC0wLjEzLDAuMTMgLTAuMTMsMC4yNiAtMC4yNiwwLjM5IGwgLTAuMjcsMC4xNCBjIC00LjUsNS44MyAtNy4wMiwxMy4xMSAtNy4wMiwyMC41MyAwLDcuNDIgMi41MiwxNC41OCA3LjE1LDIwLjQxIGwgMC4yNywwLjI2IGMgMC4xMywwLjEzIDAuMTMsMC4yNyAwLjI2LDAuNCBsIDIuMTIsMi4yNSBjIDYuMjMsNi4yMyAxNC4zMSw5LjY3IDIzLjA2LDkuNjcgaCAwLjEzIGMgMCwwIDAsMCAwLjEzLDAgOC43NSwwIDE3LjA5LC0zLjQ0IDIzLjMyLC05LjY3IGwgMi4xMiwtMi4zOCBjIDAuMTMsLTAuMTQgMC4xMywtMC4yNyAwLjI3LC0wLjQgbCAwLjI2LC0wLjI3IGMgNC42NCwtNS41NiA3LjE2LC0xMi44NSA3LjE2LC0yMC4yNyB6IE0gNTUuNzQ1LDE0LjQgYyAtMC4xMywwIC0wLjI2LDAuMTMgLTAuMzksMC4xMyAtMC4yNywwLjEzIC0wLjUzLDAuMjYgLTAuNjcsMC4yNiAtMC41MywwLjI3IC0xLjE5LDAuNCAtMS44NSwwLjY3IC0wLjEzLDAgLTAuMjcsMC4xMyAtMC40LDAuMTMgLTAuNzksMC4yNiAtMS40NiwwLjQgLTIuMjUsMC42NiAtMC4xMywwIC0wLjQsMC4xMyAtMC41MywwLjEzIC0xLjE5LC0zLjE4IC0yLjY1LC01Ljk2IC00LjM3LC04LjA4IDMuODQsMS4xOSA3LjQyLDMuMzEgMTAuNDYsNi4xIHogbSAtMjAsLTcuNjkgaCAwLjEzIGMgMy41OCwwIDcuMjksMy44NCA5Ljk0LDEwLjQ3IC0zLjA1LDAuNTMgLTYuMzYsMC43OSAtOS44MSwwLjc5IC0zLjQ0LDAgLTYuODksLTAuMjYgLTEwLjA3LC0wLjc5IDIuNTIsLTYuNDkgNi4yMywtMTAuMzQgOS44MSwtMTAuNDcgeiBtIC05LjQxLDEuNzIgYyAtMS41OSwyLjEyIC0zLjA1LDQuNzcgLTQuMjQsNy45NSAtMC4xMywwIC0wLjEzLDAgLTAuMjYsMCAtMC44LC0wLjI2IC0xLjU5LC0wLjM5IC0yLjI2LC0wLjY2IC0wLjEzLDAgLTAuMjYsLTAuMTMgLTAuMzksLTAuMTMgLTAuNTMsLTAuMjcgLTEuMiwtMC41MyAtMS43MywtMC44IC0wLjI2LC0wLjEzIC0wLjM5LC0wLjEzIC0wLjY2LC0wLjI2IC0wLjEzLC0wLjEzIC0wLjI2LC0wLjEzIC0wLjUzLC0wLjI3IDMuMDUsLTIuNTEgNi4zNiwtNC42MyAxMC4wNywtNS44MyB6IG0gLTEwLjA3LDQ5LjE2IGMgMC4xMywwIDAuMjcsLTAuMTMgMC40LC0wLjEzIDAuMjYsLTAuMTQgMC40LC0wLjE0IDAuNjYsLTAuMjcgMC41MywtMC4yNiAxLjE5LC0wLjQgMS44NiwtMC42NiAwLjEzLDAgMC4yNiwtMC4xMyAwLjM5LC0wLjEzIDAuOCwtMC4yNyAxLjQ2LC0wLjQgMi4yNiwtMC42NyAwLjEzLDAgMC4xMywwIDAuMjYsMCAxLjE5LDMuMDUgMi42NSw1LjgzIDQuMjQsNy45NSAtMy43MSwtMS4zMiAtNy4xNSwtMy40NCAtMTAuMDcsLTYuMDkgeiBtIDE5LjYxLDcuNjggaCAtMC4xMyBjIC0zLjU4LC0wLjEzIC03LjI5LC0zLjg0IC05LjgxLC0xMC4zMyAzLjE4LC0wLjUzIDYuNjMsLTAuOCAxMC4wNywtMC44IDMuNDUsMCA2LjYzLDAuMjcgOS44MSwwLjggLTIuNTIsNi40OSAtNi4zNiwxMC4zMyAtOS45NCwxMC4zMyB6IG0gOS40MSwtMS41OSBjIDEuNzIsLTIuMTIgMy4xOCwtNC45IDQuMzcsLTguMDggMC4xMywwIDAuNCwwLjEzIDAuNTMsMC4xMyAwLjc5LDAuMjcgMS41OSwwLjQgMi4yNSwwLjY3IDAuMTMsMCAwLjI3LDAuMTMgMC40LDAuMTMgMC42NiwwLjI2IDEuMTksMC40IDEuODUsMC42NiAwLjI3LDAuMTMgMC40LDAuMTMgMC42NywwLjI3IDAuMTMsMCAwLjI2LDAuMTMgMC41MywwLjI2IC0zLjE4LDIuNjUgLTYuNzYsNC43NyAtMTAuNiw1Ljk2IHogbSAxMy4zOCwtOS4xNCBjIC0wLjQsMCAtMC42NiwtMC4xMyAtMS4wNiwtMC4yNiAtMC40LC0wLjE0IC0wLjkzLC0wLjQgLTEuMzMsLTAuNTMgLTAuMTMsMCAtMC4yNiwtMC4xNCAtMC4zOSwtMC4xNCAtMS41OSwtMC42NiAtMy4zMiwtMS4wNiAtNS4wNCwtMS41OSAwLjQsLTEuNTkgMC44LC0zLjE4IDEuMDYsLTQuNzcgaCAtMy45NyBjIC0wLjI3LDEuNDYgLTAuNTMsMi43OSAtMC45MywzLjk4IC0zLjQ0LC0wLjY2IC03LjE1LC0wLjkzIC0xMSwtMC45MyAtMy45NywwIC03LjY4LDAuNCAtMTEuMjYsMS4wNiAtMC40LC0xLjMyIC0wLjY2LC0yLjY1IC0wLjkzLC00LjExIGggLTMuOTcgYyAwLjI2LDEuNzMgMC42NiwzLjMyIDEuMDYsNC45MSAtMS41OSwwLjM5IC0zLjE4LDAuOTIgLTQuNjQsMS40NSAtMC4xMywwLjE0IC0wLjQsMC4xNCAtMC41MywwLjI3IC0wLjQsMC4xMyAtMC45MywwLjQgLTEuMzIsMC41MyAtMC4yNywwIC0wLjY3LDAuMTMgLTAuOTMsMC4yNiBDIDkuNTA1LDQ5LjkgNy4yNTUsNDMuOTQgNi44NTUsMzcuODUgaCAzLjMyIHYgLTMuODQgaCAtMy4zMiBjIDAuNCwtNi4xIDIuNjUsLTExLjkzIDYuNSwtMTYuNTcgbCAwLjEzLC0wLjEzIGMgMC4yNiwwLjEzIDAuNjYsMC4yNyAwLjkzLDAuNCAwLjUzLDAuMjYgMC45MiwwLjQgMS40NSwwLjY2IDAuMTQsMCAwLjI3LDAuMTMgMC40LDAuMTMgMS40NiwwLjUzIDMuMDUsMS4wNiA0Ljc3LDEuNDYgLTAuNCwxLjQ2IC0wLjY2LDIuOTIgLTAuOTMsNC4zNyBoIDMuOTggYyAwLjI2LC0xLjE5IDAuNTMsLTIuNTEgMC43OSwtMy41NyAzLjU4LDAuNjYgNy40MiwxLjA2IDExLjI3LDEuMDYgMy44NCwwIDcuNTUsLTAuNCAxMC45OSwtMC45MyAwLjI3LDEuMDYgMC41MywyLjI1IDAuOCwzLjU4IGggMy45NyBjIC0wLjI2LC0xLjQ2IC0wLjUzLC0yLjkyIC0wLjkzLC00LjM4IDEuNzMsLTAuMzkgMy4zMiwtMC45MiA0LjkxLC0xLjU5IDAuMTMsMCAwLjM5LC0wLjEzIDAuNTMsLTAuMTMgMC41MywtMC4xMyAwLjkyLC0wLjQgMS40NSwtMC41MyAwLjI3LC0wLjEzIDAuNjcsLTAuMjYgMC45MywtMC40IDMuODQsNC43NyA2LjIzLDEwLjYgNi42MywxNi43IGggLTMuOTggdiAzLjg0IGggMy45OCBjIC0wLjY3LDUuOTYgLTIuOTIsMTEuOTIgLTYuNzYsMTYuNTYgeiIvPiYjeGE7JiN4YTs8cGF0aCBpZD0icGF0aDc4ODEwIiBpbmtzY2FwZTpjb25uZWN0b3ItY3VydmF0dXJlPSIwIiBzdHlsZT0iZmlsbDojZmZmZmZmIiBkPSJtIDI3LjY4NSwzNS44IGMgMCwxLjU3IC0wLjIxLDIuOTEgLTAuNjIsNC4wMiAtMC40MSwxLjEyIC0xLDIuMDMgLTEuNzYsMi43MyAtMC43NywwLjcxIC0xLjcsMS4yMyAtMi44LDEuNTYgLTEuMSwwLjMzIC0yLjQxLDAuNDkgLTMuOTIsMC40OSBoIC00LjA5IGMgLTAuMjksMCAtMC41NCwtMC4wOCAtMC43MywtMC4yNSAtMC4yLC0wLjE4IC0wLjMsLTAuNDYgLTAuMywtMC44NCBWIDI4LjU5IGMgMCwtMC4zOSAwLjEsLTAuNjcgMC4zLC0wLjg0IDAuMiwtMC4xNyAwLjQ0LC0wLjI2IDAuNzMsLTAuMjYgaCA0LjM5IGMgMS41MywwIDIuODIsMC4xOCAzLjg4LDAuNTQgMS4wNywwLjM1IDEuOTYsMC44OCAyLjY5LDEuNTggMC43MywwLjcxIDEuMjgsMS41NyAxLjY2LDIuNiAwLjM4LDEuMDMgMC41NywyLjIzIDAuNTcsMy41OSB6IG0gLTMuNiwwLjEyIGMgMCwtMC44MiAtMC4wOSwtMS41NyAtMC4yOCwtMi4yNyAtMC4xOSwtMC42OSAtMC41LC0xLjMgLTAuOTIsLTEuODEgLTAuNDIsLTAuNTEgLTAuOTUsLTAuOTEgLTEuNjEsLTEuMiAtMC42NiwtMC4yOCAtMS41MiwtMC40MyAtMi41OSwtMC40MyBoIC0xLjc2IHYgMTEuNjQgaCAxLjgyIGMgMC45NSwwIDEuNzUsLTAuMTIgMi40LC0wLjM3IDAuNjYsLTAuMjUgMS4yLC0wLjYyIDEuNjQsLTEuMTEgMC40MywtMC41IDAuNzYsLTEuMTIgMC45OCwtMS44NiAwLjIxLC0wLjc0IDAuMzIsLTEuNjEgMC4zMiwtMi41OSB6Ii8+JiN4YTsmI3hhOzxwYXRoIGlkPSJwYXRoNzg4MTgiIGlua3NjYXBlOmNvbm5lY3Rvci1jdXJ2YXR1cmU9IjAiIHN0eWxlPSJmaWxsOiNmZmZmZmYiIGQ9Im0gNDQuNjU1LDQzLjM5IGMgMCwwLjIgLTAuMDMsMC4zOCAtMC4xLDAuNTQgLTAuMDcsMC4xNiAtMC4xNywwLjI5IC0wLjI5LDAuNCAtMC4xMSwwLjExIC0wLjI2LDAuMTggLTAuNDIsMC4yMyAtMC4xNiwwLjA1IC0wLjMzLDAuMDcgLTAuNSwwLjA3IGggLTEuNDggYyAtMC4zMSwwIC0wLjU3LC0wLjAzIC0wLjgsLTAuMDkgLTAuMjIsLTAuMDYgLTAuNDMsLTAuMTcgLTAuNjIsLTAuMzQgLTAuMTksLTAuMTYgLTAuMzcsLTAuMzggLTAuNTUsLTAuNjYgLTAuMTcsLTAuMjggLTAuMzcsLTAuNjQgLTAuNTksLTEuMDggbCAtNC4yNiwtOCBjIC0wLjI1LC0wLjQ3IC0wLjUsLTAuOTkgLTAuNzUsLTEuNTQgLTAuMjYsLTAuNTUgLTAuNDksLTEuMDkgLTAuNjksLTEuNjEgaCAtMC4wMyBjIDAuMDQsMC42NCAwLjA2LDEuMjcgMC4wOCwxLjkgMC4wMiwwLjYzIDAuMDMsMS4yOCAwLjAzLDEuOTUgdiA4Ljk1IGMgMCwwLjA5IC0wLjAzLDAuMTcgLTAuMDgsMC4yNCAtMC4wNSwwLjA3IC0wLjEzLDAuMTMgLTAuMjUsMC4xOCAtMC4xMiwwLjA1IC0wLjI4LDAuMDkgLTAuNDgsMC4xMSAtMC4yLDAuMDMgLTAuNDcsMC4wNCAtMC43OCwwLjA0IC0wLjMxLDAgLTAuNTcsLTAuMDEgLTAuNzcsLTAuMDQgLTAuMiwtMC4wMiAtMC4zNiwtMC4wNiAtMC40NywtMC4xMSAtMC4xMiwtMC4wNSAtMC4yLC0wLjExIC0wLjI0LC0wLjE4IC0wLjA1LC0wLjA3IC0wLjA3LC0wLjE1IC0wLjA3LC0wLjI0IFYgMjguNzMgYyAwLC0wLjQxIDAuMTIsLTAuNzIgMC4zNiwtMC45MyAwLjI0LC0wLjIxIDAuNTQsLTAuMzEgMC45LC0wLjMxIGggMS44NiBjIDAuMzMsMCAwLjYyLDAuMDMgMC44NSwwLjA4IDAuMjMsMC4wNiAwLjQzLDAuMTYgMC42MSwwLjI5IDAuMTgsMC4xMyAwLjM1LDAuMzIgMC41MSwwLjU1IDAuMTYsMC4yMyAwLjMyLDAuNTIgMC40OSwwLjg3IGwgMy4zMyw2LjI1IGMgMC4xOSwwLjM4IDAuMzksMC43NSAwLjU4LDEuMTIgMC4xOSwwLjM2IDAuMzcsMC43MyAwLjU1LDEuMSAwLjE3LDAuMzYgMC4zNCwwLjcyIDAuNTEsMS4wOCAwLjE3LDAuMzUgMC4zMywwLjcgMC40OSwxLjA1IGggMC4wMSBjIC0wLjAyLC0wLjYxIC0wLjA0LC0xLjI2IC0wLjA2LC0xLjkzIC0wLjAxLC0wLjY3IC0wLjAxLC0xLjMxIC0wLjAxLC0xLjkxIHYgLTguMDMgYyAwLC0wLjA5IDAuMDIsLTAuMTcgMC4wNywtMC4yNCAwLjA1LC0wLjA3IDAuMTQsLTAuMTMgMC4yNywtMC4xOSAwLjEyLC0wLjA1IDAuMjgsLTAuMDkgMC40OSwtMC4xMSAwLjIsLTAuMDIgMC40NiwtMC4wMyAwLjc4LC0wLjAzIDAuMywwIDAuNTUsMC4wMSAwLjc1LDAuMDMgMC4yLDAuMDIgMC4zNiwwLjA2IDAuNDcsMC4xMSAwLjExLDAuMDYgMC4xOSwwLjEyIDAuMjMsMC4xOSAwLjA1LDAuMDcgMC4wNywwLjE1IDAuMDcsMC4yNCB6Ii8+JiN4YTsmI3hhOzxwYXRoIGlkPSJwYXRoNzg4MjYiIGlua3NjYXBlOmNvbm5lY3Rvci1jdXJ2YXR1cmU9IjAiIHN0eWxlPSJmaWxsOiNmZmZmZmYiIGQ9Im0gNTguNTM1LDM5LjQ3IGMgMCwwLjkgLTAuMTcsMS42OSAtMC41LDIuMzcgLTAuMzQsMC42OCAtMC43OSwxLjI0IC0xLjM3LDEuNyAtMC41NywwLjQ1IC0xLjI0LDAuNzkgLTIuMDEsMS4wMiAtMC43NiwwLjIzIC0xLjU5LDAuMzQgLTIuNDYsMC4zNCAtMC41OSwwIC0xLjE0LC0wLjA1IC0xLjY0LC0wLjE0IC0wLjUxLC0wLjEgLTAuOTYsLTAuMjIgLTEuMzUsLTAuMzUgLTAuMzksLTAuMTQgLTAuNzEsLTAuMjggLTAuOTcsLTAuNDMgLTAuMjYsLTAuMTUgLTAuNDUsLTAuMjggLTAuNTYsLTAuNCAtMC4xMiwtMC4xMSAtMC4yLC0wLjI4IC0wLjI1LC0wLjUgLTAuMDQsLTAuMjEgLTAuMDcsLTAuNTIgLTAuMDcsLTAuOTMgMCwtMC4yNyAwLjAxLC0wLjUgMC4wMywtMC42OSAwLjAxLC0wLjE4IDAuMDQsLTAuMzMgMC4wOCwtMC40NSAwLjA0LC0wLjExIDAuMSwtMC4xOSAwLjE2LC0wLjI0IDAuMDcsLTAuMDUgMC4xNCwtMC4wNyAwLjIzLC0wLjA3IDAuMTMsMCAwLjMsMC4wNyAwLjUzLDAuMjEgMC4yMiwwLjE1IDAuNTEsMC4zMSAwLjg2LDAuNDkgMC4zNiwwLjE3IDAuNzgsMC4zMyAxLjI3LDAuNDggMC40OCwwLjE0IDEuMDUsMC4yMiAxLjY5LDAuMjIgMC40MywwIDAuODEsLTAuMDUgMS4xNCwtMC4xNSAwLjM0LC0wLjExIDAuNjIsLTAuMjUgMC44NSwtMC40NCAwLjI0LC0wLjE4IDAuNDEsLTAuNDEgMC41NCwtMC42OCAwLjEyLC0wLjI4IDAuMTksLTAuNTggMC4xOSwtMC45MiAwLC0wLjM4IC0wLjExLC0wLjcyIC0wLjMyLC0wLjk5IC0wLjIxLC0wLjI4IC0wLjQ5LC0wLjUzIC0wLjgzLC0wLjc0IC0wLjM0LC0wLjIyIC0wLjczLC0wLjQyIC0xLjE2LC0wLjYxIC0wLjQzLC0wLjE5IC0wLjg4LC0wLjM5IC0xLjMzLC0wLjYxIC0wLjQ2LC0wLjIxIC0wLjkxLC0wLjQ1IC0xLjM0LC0wLjcyIC0wLjQzLC0wLjI3IC0wLjgyLC0wLjU5IC0xLjE1LC0wLjk2IC0wLjM0LC0wLjM4IC0wLjYyLC0wLjgyIC0wLjgzLC0xLjMzIC0wLjIyLC0wLjUxIC0wLjMyLC0xLjEzIC0wLjMyLC0xLjg0IDAsLTAuODIgMC4xNSwtMS41NCAwLjQ2LC0yLjE3IDAuMywtMC42MiAwLjcxLC0xLjEzIDEuMjMsLTEuNTQgMC41MSwtMC40MSAxLjEyLC0wLjcyIDEuODIsLTAuOTIgMC43LC0wLjIgMS40NSwtMC4zMSAyLjIzLC0wLjMxIDAuNDEsMCAwLjgxLDAuMDMgMS4yMiwwLjEgMC40LDAuMDYgMC43OCwwLjE0IDEuMTMsMC4yNSAwLjM1LDAuMSAwLjY3LDAuMjIgMC45NCwwLjM2IDAuMjgsMC4xMyAwLjQ2LDAuMjQgMC41NCwwLjMzIDAuMDksMC4wOCAwLjE1LDAuMTYgMC4xOCwwLjIyIDAuMDMsMC4wNiAwLjA2LDAuMTUgMC4wOCwwLjI1IDAuMDIsMC4xIDAuMDQsMC4yMyAwLjA1LDAuMzggMCwwLjE1IDAuMDEsMC4zNSAwLjAxLDAuNTggMCwwLjI1IC0wLjAxLDAuNDcgLTAuMDIsMC42NCAtMC4wMSwwLjE4IC0wLjA0LDAuMzMgLTAuMDcsMC40NCAtMC4wMywwLjExIC0wLjA3LDAuMiAtMC4xMywwLjI1IC0wLjA2LDAuMDYgLTAuMTMsMC4wOCAtMC4yMywwLjA4IC0wLjEsMCAtMC4yNSwtMC4wNiAtMC40NiwtMC4xOCAtMC4yMiwtMC4xMyAtMC40OCwtMC4yNiAtMC43OCwtMC40MSAtMC4zMSwtMC4xNCAtMC42NywtMC4yNyAtMS4wNywtMC4zOSAtMC40MSwtMC4xMiAtMC44NiwtMC4xOCAtMS4zNCwtMC4xOCAtMC4zOCwwIC0wLjcxLDAuMDQgLTAuOTksMC4xNCAtMC4yOCwwLjA5IC0wLjUyLDAuMjIgLTAuNzEsMC4zOCAtMC4xOSwwLjE2IC0wLjMzLDAuMzYgLTAuNDIsMC41OSAtMC4wOSwwLjIzIC0wLjE0LDAuNDcgLTAuMTQsMC43MyAwLDAuMzcgMC4xLDAuNyAwLjMxLDAuOTggMC4yMSwwLjI4IDAuNDksMC41MyAwLjgzLDAuNzQgMC4zNSwwLjIyIDAuNzUsMC40MiAxLjE5LDAuNjEgMC40NCwwLjE5IDAuODksMC4zOSAxLjM1LDAuNiAwLjQ2LDAuMjIgMC45MSwwLjQ2IDEuMzUsMC43MiAwLjQ0LDAuMjcgMC44MywwLjU5IDEuMTgsMC45NyAwLjM0LDAuMzcgMC42MiwwLjgyIDAuODMsMS4zMiAwLjIxLDAuNTIgMC4zMiwxLjExIDAuMzIsMS44IHoiLz4mI3hhOzwvc3ZnPg==;dashed=1;" vertex="1" parent="1">
          <mxGeometry x="88.00000000000011" y="110" width="72" height="72" as="geometry" />
        </mxCell>
        <mxCell id="M2kr-xBNgNFIODvM_Phu-108" style="edgeStyle=orthogonalEdgeStyle;rounded=0;orthogonalLoop=1;jettySize=auto;html=1;endArrow=classic;endFill=1;" edge="1" parent="1" source="M2kr-xBNgNFIODvM_Phu-74" target="M2kr-xBNgNFIODvM_Phu-72">
          <mxGeometry relative="1" as="geometry" />
        </mxCell>
        <mxCell id="M2kr-xBNgNFIODvM_Phu-74" value="" style="shape=image;verticalLabelPosition=bottom;labelBackgroundColor=#ffffff;verticalAlign=top;aspect=fixed;imageAspect=0;image=data:image/svg+xml,PHN2ZyB4bWxuczpkYz0iaHR0cDovL3B1cmwub3JnL2RjL2VsZW1lbnRzLzEuMS8iIHhtbG5zOmNjPSJodHRwOi8vY3JlYXRpdmVjb21tb25zLm9yZy9ucyMiIHhtbG5zOnJkZj0iaHR0cDovL3d3dy53My5vcmcvMTk5OS8wMi8yMi1yZGYtc3ludGF4LW5zIyIgeG1sbnM6c3ZnPSJodHRwOi8vd3d3LnczLm9yZy8yMDAwL3N2ZyIgeG1sbnM9Imh0dHA6Ly93d3cudzMub3JnLzIwMDAvc3ZnIiB4bWxuczpzb2RpcG9kaT0iaHR0cDovL3NvZGlwb2RpLnNvdXJjZWZvcmdlLm5ldC9EVEQvc29kaXBvZGktMC5kdGQiIHhtbG5zOmlua3NjYXBlPSJodHRwOi8vd3d3Lmlua3NjYXBlLm9yZy9uYW1lc3BhY2VzL2lua3NjYXBlIiB2ZXJzaW9uPSIxLjEiIGlkPSJzdmc4Mjg3OSIgaW5rc2NhcGU6dmVyc2lvbj0iMC45Mi4zICgyNDA1NTQ2LCAyMDE4LTAzLTExKSIgc29kaXBvZGk6ZG9jbmFtZT0ibG9hZF9iYWxhbmNlci5zdmciIHg9IjBweCIgeT0iMHB4IiB2aWV3Qm94PSIwIDAgMTAwLjMxIDEwMC4zMSIgeG1sOnNwYWNlPSJwcmVzZXJ2ZSIgd2lkdGg9IjEwMC4zMSIgaGVpZ2h0PSIxMDAuMzEiPjxtZXRhZGF0YSBpZD0ibWV0YWRhdGEyNDEyIj48cmRmOlJERj48Y2M6V29yayByZGY6YWJvdXQ9IiI+PGRjOmZvcm1hdD5pbWFnZS9zdmcreG1sPC9kYzpmb3JtYXQ+PGRjOnR5cGUgcmRmOnJlc291cmNlPSJodHRwOi8vcHVybC5vcmcvZGMvZGNtaXR5cGUvU3RpbGxJbWFnZSIvPjxkYzp0aXRsZS8+PC9jYzpXb3JrPjwvcmRmOlJERj48L21ldGFkYXRhPjxkZWZzIGlkPSJkZWZzMjQxMCIvPiYjeGE7PGZpbHRlciBpZD0iZmlsdGVyXzIiPiYjeGE7CTxmZUdhdXNzaWFuQmx1ciBpZD0iZmVHYXVzc2lhbkJsdXI4MjgzNiIgc3RkRGV2aWF0aW9uPSIyIi8+JiN4YTs8L2ZpbHRlcj4mI3hhOzxzb2RpcG9kaTpuYW1lZHZpZXcgYm9yZGVyY29sb3I9IiM2NjY2NjYiIGJvcmRlcm9wYWNpdHk9IjEiIGZpdC1tYXJnaW4tYm90dG9tPSIwIiBmaXQtbWFyZ2luLWxlZnQ9IjAiIGZpdC1tYXJnaW4tcmlnaHQ9IjAiIGZpdC1tYXJnaW4tdG9wPSIwIiBncmlkdG9sZXJhbmNlPSIxMCIgZ3VpZGV0b2xlcmFuY2U9IjEwIiBpZD0ibmFtZWR2aWV3ODI4ODEiIGlua3NjYXBlOmN1cnJlbnQtbGF5ZXI9InN2ZzgyODc5IiBpbmtzY2FwZTpjeD0iLTM2LjI2NDEyMyIgaW5rc2NhcGU6Y3k9IjQzLjM4OTQ1NSIgaW5rc2NhcGU6cGFnZW9wYWNpdHk9IjAiIGlua3NjYXBlOnBhZ2VzaGFkb3c9IjIiIGlua3NjYXBlOndpbmRvdy1oZWlnaHQ9IjEwMTciIGlua3NjYXBlOndpbmRvdy1tYXhpbWl6ZWQ9IjEiIGlua3NjYXBlOndpbmRvdy13aWR0aD0iMTkyMCIgaW5rc2NhcGU6d2luZG93LXg9Ii04IiBpbmtzY2FwZTp3aW5kb3cteT0iLTgiIGlua3NjYXBlOnpvb209IjUuMjEwODU3NiIgb2JqZWN0dG9sZXJhbmNlPSIxMCIgcGFnZWNvbG9yPSIjZmZmZmZmIiBzaG93Z3JpZD0iZmFsc2UiPiYjeGE7CTwvc29kaXBvZGk6bmFtZWR2aWV3PiYjeGE7JiN4YTs8cGF0aCBpZD0icGF0aDgyODQ5IiBpbmtzY2FwZTpjb25uZWN0b3ItY3VydmF0dXJlPSIwIiBzdHlsZT0iZmlsbDojN2ZiYTAwIiBkPSJtIDUwLjE1LDEwMC4zMSBjIC0yLjQ3LDAgLTQuNzksLTAuOTcgLTYuNTQsLTIuNzEgTCAyLjcxLDU2LjY5IEMgMC45OSw1NC45NyAwLDUyLjU5IDAsNTAuMTUgMCw0Ny43MiAwLjk5LDQ1LjMzIDIuNzEsNDMuNjEgTCA0My42MSwyLjcxIEMgNDUuMzYsMC45NiA0Ny42OCwwIDUwLjE1LDAgYyAyLjQ3LDAgNC44LDAuOTYgNi41NSwyLjcxIGwgNDAuODksNDAuOSBjIDEuNzUsMS43NCAyLjcyLDQuMDcgMi43Miw2LjU0IDAsMi40OCAtMC45Nyw0LjggLTIuNzIsNi41NSBMIDU2LjcsOTcuNiBjIC0xLjc1LDEuNzQgLTQuMDgsMi43MSAtNi41NSwyLjcxIHoiLz4mI3hhOyYjeGE7PHBhdGggaWQ9InBhdGg4Mjg1NyIgaW5rc2NhcGU6Y29ubmVjdG9yLWN1cnZhdHVyZT0iMCIgc3R5bGU9ImZpbGw6I2ZmZmZmZiIgZD0iTSA5MS41LDQ5LjQ4IDc4LjI0LDM2LjIxIHYgOS4zNyBMIDY0LjE2LDQ1LjU3IEMgNjIuOCw0MC43MiA1OSwzNi44OCA1NC4xNiwzNS41IFYgMjIuMDcgaCA5LjI2IEwgNTAuMTUsOC44MSAzNi44OSwyMi4wNyBoIDkuMjUgdiAxMy40MiBjIC00LjgzLDEuMzkgLTguNjMsNS4yMSAtOS45OSwxMC4wNSBMIDIyLjA3LDQ1LjUzIFYgMzYuMjYgTCA4LjgsNDkuNTMgMjIuMDcsNjIuNzkgdiAtOS4zNiBsIDE0LjA4LDAuMDEgYyAxLjM3LDQuODMgNS4xNyw4LjY0IDkuOTksMTAuMDIgdiA5LjMxIGMgLTIuMDEsMS40NiAtNS4wNyw0LjUzIC01LjA3LDguMSAwLDQuOTggNC4wOCw5LjAzIDkuMDUsOS4wMyA0Ljk4LDAgOS4wNSwtNC4wNSA5LjA1LC05LjAzIDAsLTMuNTMgLTMsLTYuNTcgLTUuMDEsLTguMDUgdiAtOS4zNiBjIDQuODIsLTEuMzggOC42MSwtNS4xOCA5Ljk4LC05Ljk5IGwgMTQuMSwwLjAxIHYgOS4yNiB6Ii8+JiN4YTsmI3hhOzxwYXRoIGlkPSJwYXRoODI4NjUiIGlua3NjYXBlOmNvbm5lY3Rvci1jdXJ2YXR1cmU9IjAiIHN0eWxlPSJmaWxsOiM1OWI0ZDkiIGQ9Im0gNTAuMTUsMzguOTMgYyAtNS44MiwwIC0xMC41NSw0LjczIC0xMC41NSwxMC41NSAwLDUuODIgNC43MywxMC41NSAxMC41NSwxMC41NSA1LjgxLDAgMTAuNTUsLTQuNzMgMTAuNTUsLTEwLjU1IDAsLTUuODIgLTQuNzQsLTEwLjU1IC0xMC41NSwtMTAuNTUgeiIvPiYjeGE7JiN4YTs8cGF0aCBpZD0icGF0aDgyODczIiBpbmtzY2FwZTpjb25uZWN0b3ItY3VydmF0dXJlPSIwIiBzdHlsZT0iZmlsbDojZmZmZmZmO2ZpbGwtb3BhY2l0eTowLjE1IiBkPSJNIDU2LjcsMi43MiBDIDU0Ljk1LDAuOTcgNTIuNjMsMCA1MC4xNSwwIDQ3LjY5LDAgNDUuMzYsMC45NyA0My42MSwyLjcyIEwgMi43MSw0My42MiBDIDAuOTksNDUuMzQgMCw0Ny43MiAwLDUwLjE2IDAsNTIuNTkgMC45OSw1NC45OCAyLjcxLDU2LjcgTCAyNS44Nyw3OS44NiA2OS40MywxNS40NSBaIi8+JiN4YTs8L3N2Zz4=;dashed=1;rotation=-180;" vertex="1" parent="1">
          <mxGeometry x="490" y="150" width="100" height="100" as="geometry" />
        </mxCell>
        <mxCell id="M2kr-xBNgNFIODvM_Phu-80" value="main API service" style="text;strokeColor=none;align=center;fillColor=none;html=1;verticalAlign=middle;whiteSpace=wrap;rounded=0;dashed=1;" vertex="1" parent="1">
          <mxGeometry x="105" y="360" width="110" height="30" as="geometry" />
        </mxCell>
        <mxCell id="M2kr-xBNgNFIODvM_Phu-81" value="notification service" style="text;strokeColor=none;align=center;fillColor=none;html=1;verticalAlign=middle;whiteSpace=wrap;rounded=0;dashed=1;" vertex="1" parent="1">
          <mxGeometry x="235" y="360" width="110" height="30" as="geometry" />
        </mxCell>
        <mxCell id="M2kr-xBNgNFIODvM_Phu-83" value="analysis service" style="text;strokeColor=none;align=center;fillColor=none;html=1;verticalAlign=middle;whiteSpace=wrap;rounded=0;dashed=1;" vertex="1" parent="1">
          <mxGeometry x="499" y="360" width="110" height="30" as="geometry" />
        </mxCell>
        <mxCell id="M2kr-xBNgNFIODvM_Phu-84" value="chat gpt service" style="text;strokeColor=none;align=center;fillColor=none;html=1;verticalAlign=middle;whiteSpace=wrap;rounded=0;dashed=1;" vertex="1" parent="1">
          <mxGeometry x="625" y="360" width="110" height="30" as="geometry" />
        </mxCell>
        <mxCell id="M2kr-xBNgNFIODvM_Phu-85" value="facturation service" style="text;strokeColor=none;align=center;fillColor=none;html=1;verticalAlign=middle;whiteSpace=wrap;rounded=0;dashed=1;" vertex="1" parent="1">
          <mxGeometry x="755" y="360" width="110" height="30" as="geometry" />
        </mxCell>
        <mxCell id="M2kr-xBNgNFIODvM_Phu-86" value="evaluation service" style="text;strokeColor=none;align=center;fillColor=none;html=1;verticalAlign=middle;whiteSpace=wrap;rounded=0;dashed=1;" vertex="1" parent="1">
          <mxGeometry x="885" y="360" width="110" height="30" as="geometry" />
        </mxCell>
        <mxCell id="M2kr-xBNgNFIODvM_Phu-103" value="mail service" style="text;strokeColor=none;align=center;fillColor=none;html=1;verticalAlign=middle;whiteSpace=wrap;rounded=0;dashed=1;" vertex="1" parent="1">
          <mxGeometry x="365" y="360" width="110" height="30" as="geometry" />
        </mxCell>
        <mxCell id="M2kr-xBNgNFIODvM_Phu-104" value="aks cluster" style="text;strokeColor=none;align=center;fillColor=none;html=1;verticalAlign=middle;whiteSpace=wrap;rounded=0;dashed=1;" vertex="1" parent="1">
          <mxGeometry x="931" y="170" width="110" height="30" as="geometry" />
        </mxCell>
        <mxCell id="M2kr-xBNgNFIODvM_Phu-105" value="domain name service" style="text;strokeColor=none;align=center;fillColor=none;html=1;verticalAlign=middle;whiteSpace=wrap;rounded=0;dashed=1;" vertex="1" parent="1">
          <mxGeometry x="69" y="182" width="110" height="30" as="geometry" />
        </mxCell>
        <mxCell id="M2kr-xBNgNFIODvM_Phu-106" value="load balancer" style="text;strokeColor=none;align=center;fillColor=none;html=1;verticalAlign=middle;whiteSpace=wrap;rounded=0;dashed=1;" vertex="1" parent="1">
          <mxGeometry x="590" y="185" width="110" height="30" as="geometry" />
        </mxCell>
        <mxCell id="M2kr-xBNgNFIODvM_Phu-109" value="api gateway" style="text;strokeColor=none;align=center;fillColor=none;html=1;verticalAlign=middle;whiteSpace=wrap;rounded=0;dashed=1;" vertex="1" parent="1">
          <mxGeometry x="585" y="30" width="110" height="30" as="geometry" />
        </mxCell>
      </root>
    </mxGraphModel>
  </diagram>
</mxfile>
